HIERARCHY
ROOT pelvis
{
  OFFSET 0 0 0
  CHANNELS 6 Xposition Yposition Zposition Zrotation Xrotation Yrotation
  JOINT pelvis_right_femur
  {
    OFFSET -11.43119 -3.542788 0.2090856
    CHANNELS 3 Zrotation Xrotation Yrotation
    JOINT right_femur_tibia
    {
      OFFSET -1.028693 -40.73281 5
      CHANNELS 3 Zrotation Xrotation Yrotation
      JOINT right_tibia_foot
      {
        OFFSET -0.5013517 -42.05707 -5
        CHANNELS 3 Zrotation Xrotation Yrotation
        End Site
        {
          OFFSET 0 -5 10
        }
      }
    }
  }
  JOINT pelvis_left_femur
  {
    OFFSET 11.43119 -3.542788 0.2090856
    CHANNELS 3 Zrotation Xrotation Yrotation
    JOINT left_femur_tibia
    {
      OFFSET 1.028693 -40.73281 5
      CHANNELS 3 Zrotation Xrotation Yrotation
      JOINT left_tibia_foot
      {
        OFFSET 0.3200228 -42.98253 -5
        CHANNELS 3 Zrotation Xrotation Yrotation
        End Site
        {
          OFFSET 0 -5 10
        }
      }
    }
  }
  JOINT pelvis_spine1
  {
    OFFSET 0 8.64413 -3.209807
    CHANNELS 3 Zrotation Xrotation Yrotation
    JOINT spine1
    {
      OFFSET 0 29.53957 -1.762685
      CHANNELS 3 Zrotation Xrotation Yrotation
      JOINT spine2
      {
        OFFSET 0 16.36153 -0.1422377
        CHANNELS 3 Zrotation Xrotation Yrotation
        JOINT neck
        {
          OFFSET 0 11.60093 5
          CHANNELS 3 Zrotation Xrotation Yrotation
          End Site
          {
            OFFSET 0 20 0
          }
        }
      }
      JOINT right_manubrium
      {
        OFFSET -4.671311 15.89868 4
        CHANNELS 3 Zrotation Xrotation Yrotation
        JOINT right_clavicle
        {
          OFFSET -13.601 1.573642 -2.74176
          CHANNELS 3 Zrotation Xrotation Yrotation
          JOINT right_humerus
          {
            OFFSET -0.06331682 -27.72702 2.252146
            CHANNELS 3 Zrotation Xrotation Yrotation
            JOINT right_radius
            {
              OFFSET -0.5696302 -23.92083 0.4042105
              CHANNELS 3 Zrotation Xrotation Yrotation
              End Site
              {
                OFFSET 0 -15 0
              }
            }
          }
        }
      }
      JOINT left_manubrium
      {
        OFFSET 4.671311 15.89868 4
        CHANNELS 3 Zrotation Xrotation Yrotation
        JOINT left_clavicle
        {
          OFFSET 13.601 1.573642 -2.74176
          CHANNELS 3 Zrotation Xrotation Yrotation
          JOINT left_humerus
          {
            OFFSET 0.000209614 -29.01858 1.101395
            CHANNELS 3 Zrotation Xrotation Yrotation
            JOINT left_radius
            {
              OFFSET -0.2288314 -24.59216 1.790347
              CHANNELS 3 Zrotation Xrotation Yrotation
              End Site
              {
                OFFSET 0 -15 0
              }
            }
          }
        }
      }
    }
  }
}
MOTION
Frames: 7
Frame Time: 0.0416666666667
-0.08207738 48.08801 0.02101815 -3.461707 -19.16877 -1.649113 -55.30545 -61.80891 -54.86092 -180 85.3207 -180 5.141427 5.829243 -0.6646043 69.88916 -51.83535 64.70793 -180 79.54885 -180 -5.189434 2.852346 -18.5779 -3.008149 20.3396 0.8533683 8.903977 13.6559 -10.77483 -10.43158 8.282063 7.88547 8.754252 -22.98444 6.288698 22.80113 -6.947399 20.11055 -61.4531 -30.46487 11.69096 0 -71.3137 0 7.100739 -9.312709 20.52066 -28.88821 -31.24836 -5.94875 56.53873 -20.49556 -25.21004 0 -77.84689 0 -8.386053 -0.05618426 -11.47922
-0.09852667 48.1257 0.03585181 -3.231301 -19.40943 -1.537777 -55.22345 -61.63036 -54.49176 -180 85.26564 -180 5.104957 5.781753 -0.6452907 69.19634 -51.70362 64.20426 -180 79.65015 -180 -5.163235 2.806639 -18.59735 -3.356223 20.65764 1.033111 8.763359 13.61242 -10.52314 -10.54162 8.243315 7.638922 9.001764 -23.41146 5.947771 22.79615 -6.906141 20.08888 -61.4658 -30.59616 11.79784 0 -71.71753 0 5.772926 -10.76107 18.8162 -29.02916 -31.67847 -5.697773 56.98777 -20.28012 -24.59031 0 -77.1645 0 -9.722103 1.43214 -14.20993
-0.1289154 48.30584 0.02198703 -2.861266 -19.65035 -1.397615 -55.02861 -61.42107 -53.9564 -180 85.30175 -180 5.073004 5.734527 -0.676073 68.23207 -51.48369 63.58954 -180 79.86334 -180 -5.126856 2.789106 -18.6371 -3.919865 20.97389 1.32381 8.744141 13.72394 -10.32695 -10.72429 8.279483 7.401374 9.270484 -23.87011 5.556849 22.81145 -6.84354 20.18562 -61.42595 -30.90818 12.01103 0 -72.37097 0 4.353947 -12.1472 17.21254 -29.04374 -31.80281 -5.605558 57.38119 -20.18369 -24.45969 0 -76.20791 0 -11.12734 3.293972 -16.95992
-0.08990221 48.38113 0.04121465 -2.62014 -19.86534 -1.224823 -54.95053 -61.18565 -53.53518 -180 85.30632 -180 5.052274 5.675094 -0.6792934 67.45681 -51.35971 63.1014 -180 79.99176 -180 -5.097381 2.739481 -18.67907 -4.299634 21.25347 1.537828 8.861576 13.87165 -10.23054 -10.96876 8.341539 7.155247 9.535488 -24.29676 5.093482 22.72676 -6.823332 20.45509 -61.40445 -31.38348 12.28831 0 -73.04471 0 2.878342 -13.40363 15.68825 -28.86163 -31.46077 -5.617851 57.58188 -20.20924 -24.95945 0 -75.20272 0 -12.51665 5.400119 -19.67405
-0.03388355 48.45652 0.06342815 -2.454833 -20.03044 -0.9999965 -54.86865 -60.91471 -53.16945 -180 85.32565 -180 5.041263 5.611484 -0.6969432 66.82769 -51.3165 62.71022 -180 80.1051 -180 -5.059755 2.706305 -18.75053 -4.48961 21.36039 1.760068 9.036547 14.02371 -10.15269 -11.31994 8.60784 6.856577 9.764612 -24.59147 4.468063 22.58151 -6.744351 20.83687 -61.35895 -31.86996 12.67193 0 -73.4523 0 1.371548 -14.47395 14.23059 -28.68006 -31.01279 -5.835086 57.38857 -20.62993 -25.81881 0 -74.96644 0 -13.69709 7.419177 -22.30644
0.03688945 48.54341 0.1248294 -2.332769 -20.14307 -0.7639355 -54.79207 -60.63034 -52.84869 -180 85.33547 -180 5.043606 5.551188 -0.7248105 66.28723 -51.28168 62.38838 -180 80.18933 -180 -5.026019 2.670528 -18.8247 -4.623975 21.343 2.043231 9.209117 14.15075 -10.09824 -11.6028 9.016398 6.437905 10.04437 -24.81627 3.679563 22.43169 -6.589562 21.24429 -61.268 -32.32355 13.15358 0 -73.55747 0 -0.1639764 -15.36435 12.82736 -28.67111 -30.74577 -6.133713 56.93791 -21.1645 -26.48829 0 -75.09794 0 -14.46328 9.114793 -24.6044
0.09725965 48.58827 0.1633593 -2.256102 -20.2246 -0.5289269 -54.79076 -60.41018 -52.65015 -180 85.32541 -180 5.063627 5.495355 -0.7796773 65.93532 -51.30724 62.20576 -180 80.23913 -180 -4.984469 2.654118 -18.90194 -4.748613 21.42228 2.267527 9.317374 14.1239 -10.034 -11.69895 9.403866 5.847474 10.41377 -25.00749 2.726612 22.26753 -6.414384 21.69046 -61.0798 -32.82726 13.75231 0 -73.45057 0 -1.725932 -16.10525 11.50254 -28.7202 -30.63367 -6.350954 56.50007 -21.52214 -26.81055 0 -74.99092 0 -14.95327 10.60819 -26.5511
